<svg xmlns="http://www.w3.org/2000/svg" aria-hidden="true" style="position:absolute;width:0;height:0;overflow:hidden">
  <defs>
    <symbol id="icon-wrench-screwdriver" viewBox="0 0 32 32">
      <path stroke-linecap="round" stroke-linejoin="round" stroke-width="1.778" d="m15.141 20.696 8.637 8.637a3.932 3.932 0 0 0 5.511-.045 3.931 3.931 0 0 0 .045-5.511l-8.707-8.707m-5.486 5.626 3.698-4.489c.47-.569 1.096-.927 1.79-1.135.815-.243 1.723-.279 2.582-.207 1.158.099 2.322-.106 3.377-.595s1.963-1.246 2.634-2.195a6.673 6.673 0 0 0 .635-6.597l-4.853 4.855A4.452 4.452 0 0 1 21.671 7l4.853-4.853a6.673 6.673 0 0 0-8.792 3.269 6.665 6.665 0 0 0-.595 3.377c.135 1.594-.105 3.354-1.339 4.37l-.151.126m-.506 7.407-6.896 8.375a3.774 3.774 0 1 1-5.313-5.313l10.129-8.341-6.084-6.084H4.89L1.557 3.777l2.222-2.222 5.556 3.333v2.087l6.311 6.311-2.585 2.129m12.383 10.029-3.889-3.889M5.433 26.556h.012v.012h-.012v-.012z"/>
    </symbol>
    <symbol id="icon-presentation-chart-bar" viewBox="0 0 36 32">
      <path stroke-linecap="round" stroke-linejoin="round" stroke-width="2" d="M4.25 1v18.75A3.752 3.752 0 0 0 8 23.5h3.75M4.25 1h-2.5m2.5 0h27.5m-20 22.5h12.5m-12.5 0-1.667 5M31.75 1h2.5m-2.5 0v18.75A3.752 3.752 0 0 1 28 23.5h-3.75m0 0 1.667 5m-15.834 0h15.833m-15.833 0L9.25 31m16.667-2.5.833 2.5M13 14.75v2.5M18 11v6.25m5-10v10"/>
    </symbol>
    <symbol id="icon-calendar-days" viewBox="0 0 32 32">
      <path stroke-linecap="round" stroke-linejoin="round" stroke-width="2" d="M7.25 1v3.75M24.75 1v3.75M1 27.25V8.5a3.752 3.752 0 0 1 3.75-3.75h22.5A3.752 3.752 0 0 1 31 8.5v18.75m-30 0A3.752 3.752 0 0 0 4.75 31h22.5A3.752 3.752 0 0 0 31 27.25m-30 0v-12.5A3.752 3.752 0 0 1 4.75 11h22.5A3.752 3.752 0 0 1 31 14.75v12.5m-15-10h.013v.013H16v-.013zM16 21h.013v.013H16V21zm0 3.75h.013v.013H16v-.013zM12.25 21h.013v.013h-.013V21zm0 3.75h.013v.013h-.013v-.013zM8.5 21h.013v.013H8.5V21zm0 3.75h.013v.013H8.5v-.013zm11.25-7.5h.013v.013h-.013v-.013zm0 3.75h.013v.013h-.013V21zm0 3.75h.013v.013h-.013v-.013zm3.75-7.5h.013v.013H23.5v-.013zm0 3.75h.013v.013H23.5V21z"/>
    </symbol>
    <symbol id="icon-user" viewBox="0 0 32 32">
      <path stroke-width="1.333" d="M31.333 16c0 8.468-6.865 15.333-15.333 15.333S.667 24.468.667 16 7.532.667 16 .667 31.333 7.532 31.333 16z"/>
      <path stroke-linecap="round" stroke-linejoin="round" stroke-width="1.333" d="M20.001 9.436c0 1.088-.421 2.132-1.172 2.901S17.061 13.539 16 13.539c-1.061 0-2.079-.432-2.829-1.202s-1.172-1.813-1.172-2.901c0-1.088.421-2.132 1.172-2.901S14.939 5.333 16 5.333c1.061 0 2.079.432 2.829 1.202s1.172 1.813 1.172 2.901zM8 24.881c.034-2.153.892-4.205 2.389-5.715S13.901 16.81 16 16.81c2.099 0 4.115.846 5.611 2.356s2.355 3.562 2.389 5.715a18.732 18.732 0 0 1-8 1.785c-2.855 0-5.564-.639-8-1.785z"/>
    </symbol>
    <symbol id="icon-arrow-right-on-rectangle" viewBox="0 0 30 32">
      <path stroke-linecap="round" stroke-linejoin="round" stroke-width="1.6" d="M18.8 11.2v-6a3.602 3.602 0 0 0-3.6-3.6H5.6A3.602 3.602 0 0 0 2 5.2v21.6a3.602 3.602 0 0 0 3.6 3.6h9.6a3.602 3.602 0 0 0 3.6-3.6v-6m4.8 0 4.8-4.8m0 0-4.8-4.8m4.8 4.8H8"/>
    </symbol>
    <symbol id="icon-chevron-double-up" viewBox="0 0 58 32">
      <path d="M30.496 29.696a2.402 2.402 0 0 1-3.392 0l-24-24a2.4 2.4 0 0 1 3.393-3.392l22.304 22.304L51.105 2.304a2.401 2.401 0 0 1 3.98.737 2.39 2.39 0 0 1-.033 1.875c-.131.294-.32.559-.556.779l-24 24z"/>
    </symbol>
    <symbol id="icon-cog-6-tooth" viewBox="0 0 32 32">
      <path stroke-linecap="round" stroke-linejoin="round" stroke-width="1.333" d="M12.792 5.253A1.5 1.5 0 0 1 14.272 4h3.457c.733 0 1.36.531 1.48 1.253l.284 1.708c.084.499.417.915.86 1.16.099.053.196.111.293.169.432.261.96.343 1.433.165l1.623-.608a1.498 1.498 0 0 1 1.826.654l1.728 2.996c.177.308.24.668.177 1.018s-.249.665-.523.89l-1.337 1.103c-.391.32-.584.817-.575 1.323.002.113.002.227 0 .34-.009.504.184 1 .573 1.32l1.34 1.104c.565.467.712 1.272.347 1.907l-1.731 2.996a1.499 1.499 0 0 1-1.826.655l-1.623-.608c-.473-.177-1-.096-1.435.165a8.597 8.597 0 0 1-.293.171c-.441.244-.775.66-.859 1.159l-.284 1.707a1.5 1.5 0 0 1-1.48 1.255h-3.459c-.733 0-1.36-.531-1.48-1.253l-.284-1.708c-.083-.499-.416-.915-.859-1.16a9.308 9.308 0 0 1-.293-.169c-.433-.261-.96-.343-1.435-.165l-1.623.608a1.5 1.5 0 0 1-1.825-.653L4.74 20.506a1.5 1.5 0 0 1 .347-1.908l1.339-1.103c.389-.32.583-.817.573-1.323a9.634 9.634 0 0 1 0-.34c.009-.504-.184-1-.573-1.32l-1.339-1.104a1.502 1.502 0 0 1-.347-1.907l1.729-2.996a1.497 1.497 0 0 1 1.826-.654l1.621.608c.475.177 1.001.096 1.435-.165.096-.059.195-.116.293-.171.443-.244.776-.66.859-1.159l.285-1.708z"/>
      <path stroke-linecap="round" stroke-linejoin="round" stroke-width="1.333" d="M20 16a4.003 4.003 0 0 1-4 4 4.003 4.003 0 0 1-4-4 4.003 4.003 0 0 1 4-4 4.003 4.003 0 0 1 4 4z"/>
    </symbol>
    <symbol id="icon-eye" viewBox="0 0 32 32">
      <path stroke-linecap="round" stroke-linejoin="round" stroke-width="1.333" d="M2.715 16.429a1.35 1.35 0 0 1 0-.852C4.564 10.013 9.814 6 16 6c6.184 0 11.431 4.009 13.284 9.571.093.276.093.575 0 .852C27.436 21.987 22.187 26 16 26c-6.184 0-11.432-4.009-13.285-9.571z"/>
      <path stroke-linecap="round" stroke-linejoin="round" stroke-width="1.333" d="M20 16a4.003 4.003 0 0 1-4 4 4.003 4.003 0 0 1-4-4 4.003 4.003 0 0 1 4-4 4.003 4.003 0 0 1 4 4z"/>
    </symbol>
    <symbol id="icon-eye-slash" viewBox="0 0 35 32">
      <path stroke-linecap="round" stroke-linejoin="round" stroke-width="1.6" d="M4.768 9.957A16.777 16.777 0 0 0 1.494 16C3.561 22.941 9.99 28 17.6 28c1.589 0 3.125-.221 4.581-.632M8.365 6.765A16.722 16.722 0 0 1 17.6 4c7.61 0 14.037 5.059 16.104 11.997a16.833 16.833 0 0 1-6.869 9.238M8.365 6.765 3.2 1.6m5.165 5.165 5.84 5.84m12.63 12.63L32 30.4m-5.165-5.165-5.84-5.84a4.786 4.786 0 0 0 1.406-3.394 4.804 4.804 0 0 0-1.406-3.394 4.804 4.804 0 0 0-6.788 0m6.787 6.787-6.786-6.786"/>
    </symbol>
    <symbol id="icon-trash" viewBox="0 0 26 32">
      <path stroke-linecap="round" stroke-linejoin="round" stroke-width="1.454" d="m17.076 11.636-.503 13.091m-6.964 0-.503-13.091m14.498-4.669c.497.076.992.156 1.487.241m-1.487-.241L22.051 27.16a3.271 3.271 0 0 1-3.264 3.021H7.395a3.273 3.273 0 0 1-3.264-3.021L2.578 6.967m21.026 0a69.834 69.834 0 0 0-5.059-.577m-15.968.577c-.497.074-.992.154-1.487.24m1.487-.24a69.834 69.834 0 0 1 5.059-.577m10.909 0V5.058c0-1.716-1.324-3.148-3.04-3.201a76.226 76.226 0 0 0-4.829 0c-1.716.054-3.04 1.487-3.04 3.201V6.39m10.909 0a70.69 70.69 0 0 0-10.909 0"/>
    </symbol>
    <symbol id="icon-pencil-square" viewBox="0 0 32 32">
      <path stroke-linecap="round" stroke-linejoin="round" stroke-width="1.524" d="m22.647 5.314 2.571-2.572a2.858 2.858 0 0 1 4.042 4.042L13.079 22.965a6.86 6.86 0 0 1-2.891 1.722l-4.091 1.219 1.219-4.091a6.86 6.86 0 0 1 1.722-2.891L22.649 5.315zm0 0 4.02 4.02M24.381 19.81v7.238a3.428 3.428 0 0 1-3.428 3.428h-16a3.428 3.428 0 0 1-3.428-3.428v-16A3.428 3.428 0 0 1 4.953 7.62h7.238"/>
    </symbol>
    <symbol id="icon-plus-small" viewBox="0 0 32 32">
      <path stroke-linecap="round" stroke-linejoin="round" stroke-width="2.286" d="M16 2.286v27.429M29.714 16H2.285"/>
    </symbol>
    <symbol id="icon-minus-small" viewBox="0 0 224 32">
      <path d="M4 16A12.003 12.003 0 0 1 16 4h192a11.998 11.998 0 0 1 12 12 11.998 11.998 0 0 1-12 12H16A12.003 12.003 0 0 1 4 16z"/>
    </symbol>
    <symbol id="icon-arrow-up-tray" viewBox="0 0 32 32">
      <path stroke-linecap="round" stroke-linejoin="round" stroke-width="1.6" d="M1.6 23.2v3.6a3.602 3.602 0 0 0 3.6 3.6h21.6a3.602 3.602 0 0 0 3.6-3.6v-3.6M8.8 8.8 16 1.6m0 0 7.2 7.2M16 1.6v21.6"/>
    </symbol>
    <symbol id="icon-plus-circle" viewBox="0 0 32 32">
      <path stroke-linecap="round" stroke-linejoin="round" stroke-width="1.6" d="M16 11.2v9.6m4.8-4.8h-9.6m19.2 0a14.395 14.395 0 0 1-8.889 13.304 14.414 14.414 0 0 1-11.022 0 14.407 14.407 0 0 1-7.794-7.793A14.395 14.395 0 0 1 5.817 5.818a14.397 14.397 0 0 1 20.364 0A14.403 14.403 0 0 1 30.399 16z"/>
    </symbol>
    <symbol id="icon-arrow-long-left" viewBox="0 0 32 32">
      <path d="M9.706 10.293a1.002 1.002 0 0 1 0 1.414L6.413 15H28a.997.997 0 0 1 1 1 1 1 0 0 1-1 1H6.413l3.293 3.293a1.002 1.002 0 0 1 .025 1.439.992.992 0 0 1-.725.293 1.001 1.001 0 0 1-.714-.318l-5-5a1.002 1.002 0 0 1 0-1.414l5-5a1.002 1.002 0 0 1 1.414 0z"/>
    </symbol>
    <symbol id="icon-x-mark" viewBox="0 0 32 32">
      <path stroke-linejoin="round" stroke-linecap="round" stroke-miterlimit="4" stroke-width="2" d="M8 24l16-16M8 8l16 16"></path>
    </symbol>
	 <symbol id="icon-waterList" viewBox="0 0 32 32">
<path fill="#407bff" style="fill: var(--color1, #407bff)" d="M32 16c0 8.837-7.163 16-16 16s-16-7.163-16-16c0-8.837 7.163-16 16-16s16 7.163 16 16z"></path>
</symbol>
<symbol id="icon-settings" viewBox="0 0 32 32">
<path fill="none" stroke="#407bff" style="stroke: var(--color1, #407bff)" stroke-linejoin="round" stroke-linecap="round" stroke-miterlimit="4" stroke-width="2.2857" d="M15.116 20.831l8.884 8.884c0.762 0.738 1.783 1.146 2.844 1.137s2.075-0.434 2.825-1.184c0.75-0.75 1.175-1.764 1.184-2.825s-0.4-2.082-1.137-2.844l-8.955-8.955M15.116 20.831l3.803-4.617c0.483-0.585 1.128-0.954 1.841-1.167 0.838-0.25 1.772-0.286 2.656-0.213 1.191 0.102 2.389-0.109 3.473-0.612s2.019-1.282 2.71-2.258c0.691-0.976 1.115-2.115 1.229-3.306s-0.084-2.39-0.576-3.479l-4.992 4.994c-0.835-0.193-1.599-0.617-2.206-1.223s-1.030-1.37-1.223-2.206l4.992-4.992c-1.090-0.492-2.289-0.691-3.48-0.576s-2.33 0.538-3.306 1.229-1.754 1.625-2.258 2.71c-0.503 1.085-0.714 2.282-0.612 3.473 0.139 1.64-0.108 3.45-1.378 4.495l-0.155 0.13M15.116 20.831l-7.093 8.614c-0.344 0.419-0.771 0.762-1.256 1.005s-1.014 0.383-1.555 0.41c-0.541 0.027-1.082-0.060-1.588-0.255s-0.965-0.494-1.348-0.877-0.682-0.843-0.877-1.348c-0.195-0.506-0.282-1.047-0.255-1.588s0.166-1.071 0.41-1.555c0.244-0.484 0.586-0.912 1.005-1.256l10.418-8.579-6.258-6.258h-2.147l-3.429-5.714 2.286-2.286 5.714 3.429v2.147l6.491 6.491-2.659 2.19M25.714 25.714l-4-4M5.131 26.857h0.012v0.012h-0.012v-0.012z"></path>
</symbol>
<symbol id="icon-statistic" viewBox="0 0 32 32">
<path fill="none" stroke="#407bff" style="stroke: var(--color1, #407bff)" stroke-linejoin="round" stroke-linecap="round" stroke-miterlimit="4" stroke-width="2" d="M5 4v15c0 0.796 0.316 1.559 0.879 2.121s1.326 0.879 2.121 0.879h3M5 4h-2M5 4h22M11 22h10M11 22l-1.333 4M27 4h2M27 4v15c0 0.796-0.316 1.559-0.879 2.121s-1.326 0.879-2.121 0.879h-3M21 22l1.333 4M9.667 26h12.667M9.667 26l-0.667 2M22.333 26l0.667 2M12 15v2M16 12v5M20 9v8"></path>
</symbol>
<symbol id="icon-calendar" viewBox="0 0 32 32">
<path fill="none" stroke="#407bff" style="stroke: var(--color1, #407bff)" stroke-linejoin="round" stroke-linecap="round" stroke-miterlimit="4" stroke-width="2.4615" d="M7.385 1.231v3.692M24.615 1.231v3.692M1.231 27.077v-18.462c0-0.979 0.389-1.918 1.081-2.611s1.632-1.081 2.611-1.081h22.154c0.979 0 1.918 0.389 2.611 1.081s1.081 1.632 1.081 2.611v18.462M1.231 27.077c0 0.979 0.389 1.918 1.081 2.611s1.632 1.081 2.611 1.081h22.154c0.979 0 1.918-0.389 2.611-1.081s1.081-1.632 1.081-2.611M1.231 27.077v-12.308c0-0.979 0.389-1.918 1.081-2.611s1.632-1.081 2.611-1.081h22.154c0.979 0 1.918 0.389 2.611 1.081s1.081 1.632 1.081 2.611v12.308M16 17.231h0.013v0.013h-0.013v-0.013zM16 20.923h0.013v0.013h-0.013v-0.013zM16 24.615h0.013v0.013h-0.013v-0.013zM12.308 20.923h0.013v0.013h-0.013v-0.013zM12.308 24.615h0.013v0.013h-0.013v-0.013zM8.615 20.923h0.013v0.013h-0.013v-0.013zM8.615 24.615h0.013v0.013h-0.013v-0.013zM19.692 17.231h0.013v0.013h-0.013v-0.013zM19.692 20.923h0.013v0.013h-0.013v-0.013zM19.692 24.615h0.013v0.013h-0.013v-0.013zM23.385 17.231h0.013v0.013h-0.013v-0.013zM23.385 20.923h0.013v0.013h-0.013v-0.013z"></path>
</symbol>
  </defs>
</svg>
