<svg aria-hidden="true" style="position: absolute; width: 0; height: 0; overflow: hidden;" version="1.1" xmlns="http://www.w3.org/2000/svg" xmlns:xlink="http://www.w3.org/1999/xlink">
<defs>
<symbol id="icon-calendar" viewBox="0 0 32 32">
<path fill="none" stroke="#407bff" style="stroke: var(--color1, #407bff)" stroke-linejoin="round" stroke-linecap="round" stroke-miterlimit="4" stroke-width="2.4615" d="M7.385 1.231v3.692M24.615 1.231v3.692M1.231 27.077v-18.462c0-0.979 0.389-1.918 1.081-2.611s1.632-1.081 2.611-1.081h22.154c0.979 0 1.918 0.389 2.611 1.081s1.081 1.632 1.081 2.611v18.462M1.231 27.077c0 0.979 0.389 1.918 1.081 2.611s1.632 1.081 2.611 1.081h22.154c0.979 0 1.918-0.389 2.611-1.081s1.081-1.632 1.081-2.611M1.231 27.077v-12.308c0-0.979 0.389-1.918 1.081-2.611s1.632-1.081 2.611-1.081h22.154c0.979 0 1.918 0.389 2.611 1.081s1.081 1.632 1.081 2.611v12.308M16 17.231h0.013v0.013h-0.013v-0.013zM16 20.923h0.013v0.013h-0.013v-0.013zM16 24.615h0.013v0.013h-0.013v-0.013zM12.308 20.923h0.013v0.013h-0.013v-0.013zM12.308 24.615h0.013v0.013h-0.013v-0.013zM8.615 20.923h0.013v0.013h-0.013v-0.013zM8.615 24.615h0.013v0.013h-0.013v-0.013zM19.692 17.231h0.013v0.013h-0.013v-0.013zM19.692 20.923h0.013v0.013h-0.013v-0.013zM19.692 24.615h0.013v0.013h-0.013v-0.013zM23.385 17.231h0.013v0.013h-0.013v-0.013zM23.385 20.923h0.013v0.013h-0.013v-0.013z"></path>
</symbol>
<symbol id="icon-settings" viewBox="0 0 32 32">
<path fill="none" stroke="#407bff" style="stroke: var(--color1, #407bff)" stroke-linejoin="round" stroke-linecap="round" stroke-miterlimit="4" stroke-width="2.2857" d="M15.116 20.831l8.884 8.884c0.762 0.738 1.783 1.146 2.844 1.137s2.075-0.434 2.825-1.184c0.75-0.75 1.175-1.764 1.184-2.825s-0.4-2.082-1.137-2.844l-8.955-8.955M15.116 20.831l3.803-4.617c0.483-0.585 1.128-0.954 1.841-1.167 0.838-0.25 1.772-0.286 2.656-0.213 1.191 0.102 2.389-0.109 3.473-0.612s2.019-1.282 2.71-2.258c0.691-0.976 1.115-2.115 1.229-3.306s-0.084-2.39-0.576-3.479l-4.992 4.994c-0.835-0.193-1.599-0.617-2.206-1.223s-1.030-1.37-1.223-2.206l4.992-4.992c-1.090-0.492-2.289-0.691-3.48-0.576s-2.33 0.538-3.306 1.229-1.754 1.625-2.258 2.71c-0.503 1.085-0.714 2.282-0.612 3.473 0.139 1.64-0.108 3.45-1.378 4.495l-0.155 0.13M15.116 20.831l-7.093 8.614c-0.344 0.419-0.771 0.762-1.256 1.005s-1.014 0.383-1.555 0.41c-0.541 0.027-1.082-0.060-1.588-0.255s-0.965-0.494-1.348-0.877-0.682-0.843-0.877-1.348c-0.195-0.506-0.282-1.047-0.255-1.588s0.166-1.071 0.41-1.555c0.244-0.484 0.586-0.912 1.005-1.256l10.418-8.579-6.258-6.258h-2.147l-3.429-5.714 2.286-2.286 5.714 3.429v2.147l6.491 6.491-2.659 2.19M25.714 25.714l-4-4M5.131 26.857h0.012v0.012h-0.012v-0.012z"></path>
</symbol>
<symbol id="icon-statistic" viewBox="0 0 34 32">
<path fill="none" stroke="#407bff" style="stroke: var(--color1, #407bff)" stroke-linejoin="round" stroke-linecap="round" stroke-miterlimit="4" stroke-width="2.4615" d="M3.692 1.231v18.462c0 0.979 0.389 1.918 1.081 2.611s1.632 1.081 2.611 1.081h3.692M3.692 1.231h-2.462M3.692 1.231h27.077M11.077 23.385h12.308M11.077 23.385l-1.641 4.923M30.769 1.231h2.462M30.769 1.231v18.462c0 0.979-0.389 1.918-1.081 2.611s-1.632 1.081-2.611 1.081h-3.692M23.385 23.385l1.641 4.923M9.436 28.308h15.59M9.436 28.308l-0.821 2.462M25.026 28.308l0.821 2.462M12.308 14.769v2.462M17.231 11.077v6.154M22.154 7.385v9.846"></path>
</symbol>
</defs>
</svg>
