<svg xmlns="http://www.w3.org/2000/svg" aria-hidden="true" style="position:absolute;width:0;height:0;overflow:hidden">
  <defs>
    <symbol id="icon-wrench-screwdriver" viewBox="0 0 32 32">
      <path stroke-linecap="round" stroke-linejoin="round" stroke-width="1.778" d="m15.141 20.696 8.637 8.637a3.932 3.932 0 0 0 5.511-.045 3.931 3.931 0 0 0 .045-5.511l-8.707-8.707m-5.486 5.626 3.698-4.489c.47-.569 1.096-.927 1.79-1.135.815-.243 1.723-.279 2.582-.207 1.158.099 2.322-.106 3.377-.595s1.963-1.246 2.634-2.195a6.673 6.673 0 0 0 .635-6.597l-4.853 4.855A4.452 4.452 0 0 1 21.671 7l4.853-4.853a6.673 6.673 0 0 0-8.792 3.269 6.665 6.665 0 0 0-.595 3.377c.135 1.594-.105 3.354-1.339 4.37l-.151.126m-.506 7.407-6.896 8.375a3.774 3.774 0 1 1-5.313-5.313l10.129-8.341-6.084-6.084H4.89L1.557 3.777l2.222-2.222 5.556 3.333v2.087l6.311 6.311-2.585 2.129m12.383 10.029-3.889-3.889M5.433 26.556h.012v.012h-.012v-.012z"/>
    </symbol>
    <symbol id="icon-presentation-chart-bar" viewBox="0 0 36 32">
      <path stroke-linecap="round" stroke-linejoin="round" stroke-width="2" d="M4.25 1v18.75A3.752 3.752 0 0 0 8 23.5h3.75M4.25 1h-2.5m2.5 0h27.5m-20 22.5h12.5m-12.5 0-1.667 5M31.75 1h2.5m-2.5 0v18.75A3.752 3.752 0 0 1 28 23.5h-3.75m0 0 1.667 5m-15.834 0h15.833m-15.833 0L9.25 31m16.667-2.5.833 2.5M13 14.75v2.5M18 11v6.25m5-10v10"/>
    </symbol>
    <symbol id="icon-calendar-days" viewBox="0 0 32 32">
      <path stroke-linecap="round" stroke-linejoin="round" stroke-width="2" d="M7.25 1v3.75M24.75 1v3.75M1 27.25V8.5a3.752 3.752 0 0 1 3.75-3.75h22.5A3.752 3.752 0 0 1 31 8.5v18.75m-30 0A3.752 3.752 0 0 0 4.75 31h22.5A3.752 3.752 0 0 0 31 27.25m-30 0v-12.5A3.752 3.752 0 0 1 4.75 11h22.5A3.752 3.752 0 0 1 31 14.75v12.5m-15-10h.013v.013H16v-.013zM16 21h.013v.013H16V21zm0 3.75h.013v.013H16v-.013zM12.25 21h.013v.013h-.013V21zm0 3.75h.013v.013h-.013v-.013zM8.5 21h.013v.013H8.5V21zm0 3.75h.013v.013H8.5v-.013zm11.25-7.5h.013v.013h-.013v-.013zm0 3.75h.013v.013h-.013V21zm0 3.75h.013v.013h-.013v-.013zm3.75-7.5h.013v.013H23.5v-.013zm0 3.75h.013v.013H23.5V21z"/>
    </symbol>
    <symbol id="icon-user" viewBox="0 0 32 32">
      <path stroke-width="1.333" d="M31.333 16c0 8.468-6.865 15.333-15.333 15.333S.667 24.468.667 16 7.532.667 16 .667 31.333 7.532 31.333 16z"/>
      <path stroke-linecap="round" stroke-linejoin="round" stroke-width="1.333" d="M20.001 9.436c0 1.088-.421 2.132-1.172 2.901S17.061 13.539 16 13.539c-1.061 0-2.079-.432-2.829-1.202s-1.172-1.813-1.172-2.901c0-1.088.421-2.132 1.172-2.901S14.939 5.333 16 5.333c1.061 0 2.079.432 2.829 1.202s1.172 1.813 1.172 2.901zM8 24.881c.034-2.153.892-4.205 2.389-5.715S13.901 16.81 16 16.81c2.099 0 4.115.846 5.611 2.356s2.355 3.562 2.389 5.715a18.732 18.732 0 0 1-8 1.785c-2.855 0-5.564-.639-8-1.785z"/>
    </symbol>
    <symbol id="icon-arrow-right-on-rectangle" viewBox="0 0 30 32">
      <path stroke-linecap="round" stroke-linejoin="round" stroke-width="1.6" d="M18.8 11.2v-6a3.602 3.602 0 0 0-3.6-3.6H5.6A3.602 3.602 0 0 0 2 5.2v21.6a3.602 3.602 0 0 0 3.6 3.6h9.6a3.602 3.602 0 0 0 3.6-3.6v-6m4.8 0 4.8-4.8m0 0-4.8-4.8m4.8 4.8H8"/>
    </symbol>
    <symbol id="icon-chevron-double-up" viewBox="0 0 58 32">
      <path d="M30.496 29.696a2.402 2.402 0 0 1-3.392 0l-24-24a2.4 2.4 0 0 1 3.393-3.392l22.304 22.304L51.105 2.304a2.401 2.401 0 0 1 3.98.737 2.39 2.39 0 0 1-.033 1.875c-.131.294-.32.559-.556.779l-24 24z"/>
    </symbol>
    <symbol id="icon-cog-6-tooth" viewBox="0 0 32 32">
      <path stroke-linecap="round" stroke-linejoin="round" stroke-width="1.333" d="M12.792 5.253A1.5 1.5 0 0 1 14.272 4h3.457c.733 0 1.36.531 1.48 1.253l.284 1.708c.084.499.417.915.86 1.16.099.053.196.111.293.169.432.261.96.343 1.433.165l1.623-.608a1.498 1.498 0 0 1 1.826.654l1.728 2.996c.177.308.24.668.177 1.018s-.249.665-.523.89l-1.337 1.103c-.391.32-.584.817-.575 1.323.002.113.002.227 0 .34-.009.504.184 1 .573 1.32l1.34 1.104c.565.467.712 1.272.347 1.907l-1.731 2.996a1.499 1.499 0 0 1-1.826.655l-1.623-.608c-.473-.177-1-.096-1.435.165a8.597 8.597 0 0 1-.293.171c-.441.244-.775.66-.859 1.159l-.284 1.707a1.5 1.5 0 0 1-1.48 1.255h-3.459c-.733 0-1.36-.531-1.48-1.253l-.284-1.708c-.083-.499-.416-.915-.859-1.16a9.308 9.308 0 0 1-.293-.169c-.433-.261-.96-.343-1.435-.165l-1.623.608a1.5 1.5 0 0 1-1.825-.653L4.74 20.506a1.5 1.5 0 0 1 .347-1.908l1.339-1.103c.389-.32.583-.817.573-1.323a9.634 9.634 0 0 1 0-.34c.009-.504-.184-1-.573-1.32l-1.339-1.104a1.502 1.502 0 0 1-.347-1.907l1.729-2.996a1.497 1.497 0 0 1 1.826-.654l1.621.608c.475.177 1.001.096 1.435-.165.096-.059.195-.116.293-.171.443-.244.776-.66.859-1.159l.285-1.708z"/>
      <path stroke-linecap="round" stroke-linejoin="round" stroke-width="1.333" d="M20 16a4.003 4.003 0 0 1-4 4 4.003 4.003 0 0 1-4-4 4.003 4.003 0 0 1 4-4 4.003 4.003 0 0 1 4 4z"/>
    </symbol>
    <symbol id="icon-eye" viewBox="0 0 32 32">
      <path stroke-linecap="round" stroke-linejoin="round" stroke-width="1.333" d="M2.715 16.429a1.35 1.35 0 0 1 0-.852C4.564 10.013 9.814 6 16 6c6.184 0 11.431 4.009 13.284 9.571.093.276.093.575 0 .852C27.436 21.987 22.187 26 16 26c-6.184 0-11.432-4.009-13.285-9.571z"/>
      <path stroke-linecap="round" stroke-linejoin="round" stroke-width="1.333" d="M20 16a4.003 4.003 0 0 1-4 4 4.003 4.003 0 0 1-4-4 4.003 4.003 0 0 1 4-4 4.003 4.003 0 0 1 4 4z"/>
    </symbol>
    <symbol id="icon-eye-slash" viewBox="0 0 35 32">
      <path stroke-linecap="round" stroke-linejoin="round" stroke-width="1.6" d="M4.768 9.957A16.777 16.777 0 0 0 1.494 16C3.561 22.941 9.99 28 17.6 28c1.589 0 3.125-.221 4.581-.632M8.365 6.765A16.722 16.722 0 0 1 17.6 4c7.61 0 14.037 5.059 16.104 11.997a16.833 16.833 0 0 1-6.869 9.238M8.365 6.765 3.2 1.6m5.165 5.165 5.84 5.84m12.63 12.63L32 30.4m-5.165-5.165-5.84-5.84a4.786 4.786 0 0 0 1.406-3.394 4.804 4.804 0 0 0-1.406-3.394 4.804 4.804 0 0 0-6.788 0m6.787 6.787-6.786-6.786"/>
    </symbol>
    <symbol id="icon-trash" viewBox="0 0 26 32">
      <path stroke-linecap="round" stroke-linejoin="round" stroke-width="1.454" d="m17.076 11.636-.503 13.091m-6.964 0-.503-13.091m14.498-4.669c.497.076.992.156 1.487.241m-1.487-.241L22.051 27.16a3.271 3.271 0 0 1-3.264 3.021H7.395a3.273 3.273 0 0 1-3.264-3.021L2.578 6.967m21.026 0a69.834 69.834 0 0 0-5.059-.577m-15.968.577c-.497.074-.992.154-1.487.24m1.487-.24a69.834 69.834 0 0 1 5.059-.577m10.909 0V5.058c0-1.716-1.324-3.148-3.04-3.201a76.226 76.226 0 0 0-4.829 0c-1.716.054-3.04 1.487-3.04 3.201V6.39m10.909 0a70.69 70.69 0 0 0-10.909 0"/>
    </symbol>
    <symbol id="icon-pencil-square" viewBox="0 0 32 32">
      <path stroke-linecap="round" stroke-linejoin="round" stroke-width="1.524" d="m22.647 5.314 2.571-2.572a2.858 2.858 0 0 1 4.042 4.042L13.079 22.965a6.86 6.86 0 0 1-2.891 1.722l-4.091 1.219 1.219-4.091a6.86 6.86 0 0 1 1.722-2.891L22.649 5.315zm0 0 4.02 4.02M24.381 19.81v7.238a3.428 3.428 0 0 1-3.428 3.428h-16a3.428 3.428 0 0 1-3.428-3.428v-16A3.428 3.428 0 0 1 4.953 7.62h7.238"/>
    </symbol>
    <symbol id="icon-plus-small" viewBox="0 0 32 32">
      <path stroke-linecap="round" stroke-linejoin="round" stroke-width="2.286" d="M16 2.286v27.429M29.714 16H2.285"/>
    </symbol>
    <symbol id="icon-minus-small" viewBox="0 0 224 32">
      <path d="M4 16A12.003 12.003 0 0 1 16 4h192a11.998 11.998 0 0 1 12 12 11.998 11.998 0 0 1-12 12H16A12.003 12.003 0 0 1 4 16z"/>
    </symbol>
    <symbol id="icon-arrow-up-tray" viewBox="0 0 32 32">
      <path stroke-linecap="round" stroke-linejoin="round" stroke-width="1.6" d="M1.6 23.2v3.6a3.602 3.602 0 0 0 3.6 3.6h21.6a3.602 3.602 0 0 0 3.6-3.6v-3.6M8.8 8.8 16 1.6m0 0 7.2 7.2M16 1.6v21.6"/>
    </symbol>
    <symbol id="icon-plus-circle" viewBox="0 0 32 32">
      <path stroke-linecap="round" stroke-linejoin="round" stroke-width="1.6" d="M16 11.2v9.6m4.8-4.8h-9.6m19.2 0a14.395 14.395 0 0 1-8.889 13.304 14.414 14.414 0 0 1-11.022 0 14.407 14.407 0 0 1-7.794-7.793A14.395 14.395 0 0 1 5.817 5.818a14.397 14.397 0 0 1 20.364 0A14.403 14.403 0 0 1 30.399 16z"/>
    </symbol>
    <symbol id="icon-arrow-long-left" viewBox="0 0 32 32">
      <path d="M9.706 10.293a1.002 1.002 0 0 1 0 1.414L6.413 15H28a.997.997 0 0 1 1 1 1 1 0 0 1-1 1H6.413l3.293 3.293a1.002 1.002 0 0 1 .025 1.439.992.992 0 0 1-.725.293 1.001 1.001 0 0 1-.714-.318l-5-5a1.002 1.002 0 0 1 0-1.414l5-5a1.002 1.002 0 0 1 1.414 0z"/>
    </symbol>
    <symbol id="icon-Logo" viewBox="0 0 68 32">
      <path fill="#9ebbff" d="M10.546 4.879c.449-.353 1.016.412 1.076 1.118s-.568 2.295-2.331 2.707c-1.763.412-1.972 1.501-1.913 2.148s-.239 1.354-.867 1.207-.687-1.118-.12-2.031c.568-.913 2.002-1.736 2.241-2.237s.06-1.089.538-1.295c.478-.206 1.106.324 1.046.824 0 0 .478-.471.418-1.177-.039-.464-.315-1.088-.09-1.265zM22.141 9.176c.166-.472 1.345-.206 1.614.441s.179 1.148.448 1.589-.478 1.177-1.031 1.089c-.553-.088-.344-1.089-.344-1.53s-.956-.824-.687-1.589zM18.406 3.618c.409-.36 1.285.26 1.524.76s.03 1.824-.702 1.795c-.732-.029-.441-1.065-.702-1.28-.463-.382-.448-.986-.119-1.275zM13.361.553c.29.449.074 1.059-.663 1.197s-.877-.471-1.275-.334c-.399.138-.837.235-1.016-.079s.02-.785.817-.785 1.605-.824 2.137 0zM8.724 4.843c.347 0 .627-.298.627-.666s-.281-.666-.627-.666c-.347 0-.628.298-.628.666s.281.666.628.666zM6.002 7.047c-.223-.111-.954 1.039-.456 1.177s.812-1.001.456-1.177zM4.052 10.46s.976.53.618 1.618-1.135.952-1.375.618c-.239-.334-.239-.785.159-1.099s.598-1.137.598-1.137zM24.771 16.326s.299.442.15 1.236-.388 2.354.448 2.796c.836.442 1.165-1.118.837-1.589s.179-2.09-1.435-2.443zM25.832 23.418c.355 0 .643-.343.643-.765s-.288-.765-.643-.765-.643.343-.643.765c0 .423.288.765.643.765zM.625 23.712c.554-.283 1.016.177 1.076 1.03s.867 1.589.448 2.03c-.418.441-.905-1.383-1.285-1.552-.583-.26-1.046-1.096-.239-1.508z" style="fill:var(--color1, #9ebbff)"/>
      <path fill="#9ebbff" d="M24.157 24.565c-.522.53.173 1.078-1.059 2.472-.513.58.379 2.315-2.092 2.295 0 0-1.435 1.294-2.869 1.472s-2.032-.059-3.407.706c-1.375.765-4.423-.53-5.678-1.089s-1.733-.618-2.808-.618c-1.076 0-.657-1.648-1.435-2.354s-1.674-1-1.734-1.647c-.06-.647-.657-.942-.597-1.943s-.956-1.295-1.076-2.531.537-1.471.298-2.177c-.239-.706-.298-1.295.06-2.001.043-.086.092-.168.148-.245.307-.431.602-.398.808-1.108.239-.824-.418-1.177.299-1.53s.956.706.538 1.765c-.419 1.06-.957 2.06-.239 2.236s.538-2.001 1.495-3.002c.956-1.001.538-1.235 1.793-2.236s1.375-.588 1.793-1.648c.418-1.06 1.599-2.177 2.803-2.707s1.741-.765 1.561-1.648c-.18-.883.823-.883.86-1.825s-.801-1.589-1.518-1.354-1.435.235-1.195-.529c.239-.765 1.744-.706 2.456-.354s1.31-.529 2.266.354 2.211 1.177 2.032 3.238-.358 2.766.418 2.884c.777.118.12-.942.12-1.765s1.375-.765 1.733-.118c.358.647-.119 1.765.239 2.178s1.016.353 1.195.941c.179.588-.119 3.002.717 3.532s.657-1.294 1.375-.735c.717.559.896 1.559.478 2.56-.279.669-.308 2.339-.146 3.776.079.711.204 1.366.368 1.815.494 1.353.52 2.412-.001 2.942z" style="fill:var(--color1, #9ebbff)"/>
      <path fill="#c6d7ff" d="M14.249 9.565c1.569-.488 2.887 2.212 2.34 3.372s-.78 4.739 1.248 4.294c2.028-.445.546-3.887 1.638-3.818s.624 3.219 1.326 4.217c.702.999 3.125 7.836-.778 10.217s-9.425 2.305-11.54.538a9.2 9.2 0 0 1-1.92-2.176 4.6 4.6 0 0 1-.434-.852c-.19-.512-.157-.692-.349-1.206a4.883 4.883 0 0 0-.482-.944c-.422-.638-.613-.564-1.007-1.119-.132-.186-.55-.812-.588-1.657-.01-.221-.038-.839.229-.949.302-.125.693.52 1.094.386.21-.07.302-.314.359-.466.17-.451 0-.73-.082-1.399-.063-.517-.138-1.139.17-1.664.05-.086.196-.367.679-.629 1.698-.922 3.222-.077 4.332-1.767s1.132-1.801 2.174-2.245c1.042-.444.106-1.673 1.588-2.134z" style="fill:var(--color2, #c6d7ff)"/>
      <path fill="#407bff" d="M13.626 32c-1.108 0-2.655-.447-4.679-1.349-1.233-.55-1.671-.596-2.704-.596-.817 0-.991-.734-1.131-1.323-.099-.416-.201-.847-.477-1.098-.257-.234-.526-.418-.786-.597-.525-.362-.979-.674-1.029-1.213-.02-.214-.118-.39-.233-.595-.18-.323-.405-.724-.365-1.385.024-.411-.173-.678-.423-1.016-.274-.37-.586-.791-.652-1.476-.068-.703.095-1.111.225-1.44.107-.268.171-.43.086-.682-.216-.638-.357-1.346.074-2.193.181-.357.372-.524.526-.659.175-.153.301-.263.413-.651.083-.286.036-.498-.009-.703-.068-.308-.153-.691.44-.983.298-.147.59-.123.801.066.379.34.417 1.188.091 2.016-.057.145-.117.289-.175.43-.227.55-.484 1.171-.372 1.388.009.017.029.057.132.082.006.002.013.003.019.002.115-.04.255-.59.338-.918.167-.657.374-1.476.889-2.014.39-.409.536-.678.677-.939.2-.37.389-.721 1.142-1.321a7.258 7.258 0 0 1 1.031-.698c.357-.205.453-.26.685-.845.437-1.107 1.644-2.277 2.936-2.846l.006-.002c1.252-.552 1.543-.707 1.409-1.366-.12-.591.194-.898.447-1.145.212-.207.395-.385.408-.738a1.13 1.13 0 0 0-.442-.961c-.23-.17-.499-.222-.738-.143-.459.151-1.075.265-1.398-.046-.13-.125-.257-.365-.122-.797.087-.277.3-.493.616-.626.654-.275 1.65-.15 2.199.122.197.098.383.063.67-.001.44-.098.988-.221 1.655.395.203.187.426.351.642.51.797.585 1.621 1.191 1.47 2.932-.022.258-.045.494-.065.711-.155 1.629-.124 1.843.268 1.902a.391.391 0 0 0 .083.006c.017-.106-.055-.391-.103-.585-.073-.292-.156-.623-.156-.937 0-.409.255-.717.681-.824.51-.128 1.242.06 1.533.585.217.392.181.89.149 1.329-.023.319-.049.68.06.805.111.128.278.203.454.283.291.131.653.296.792.75.065.213.075.57.087 1.02.023.827.058 2.077.523 2.371.085.054.133.061.149.056.068-.02.166-.228.224-.353.111-.239.238-.51.508-.574.164-.039.337.012.514.15.801.625 1.019 1.744.556 2.854-.384.919-.251 4.104.226 5.41.549 1.5.529 2.608-.057 3.203-.136.138-.151.263-.171.531-.033.433-.078 1.025-.879 1.931-.1.113-.124.357-.149.615-.069.698-.172 1.746-2.038 1.767-.324.276-1.611 1.307-2.934 1.47-.407.05-.75.068-1.053.084-.765.04-1.318.068-2.259.592-.324.18-.733.271-1.231.271zM3.276 14.449a.339.339 0 0 0-.146.042c-.237.117-.231.146-.169.425.05.228.12.541.001.949-.153.528-.363.712-.565.889-.14.122-.271.238-.409.508-.329.648-.261 1.172-.046 1.809.144.426.023.731-.095 1.026-.116.293-.248.625-.192 1.208.053.548.309.894.556 1.227.273.369.556.751.521 1.342-.031.516.131.806.303 1.112.13.233.265.473.294.792.028.306.374.544.812.845.261.179.557.383.84.64.391.356.517.886.628 1.354.158.664.259.934.632.934 1.072 0 1.601.055 2.915.64 3.407 1.517 4.842 1.436 5.447 1.099 1.046-.582 1.681-.615 2.484-.657.294-.015.628-.032 1.017-.08 1.338-.165 2.714-1.395 2.728-1.407a.256.256 0 0 1 .173-.066h.002c1.494.012 1.554-.601 1.624-1.311.033-.341.065-.662.273-.897.69-.78.726-1.255.755-1.638.021-.28.043-.569.314-.844.428-.435.407-1.412-.057-2.682-.528-1.444-.652-4.734-.218-5.772.374-.896.217-1.785-.4-2.267a.337.337 0 0 0-.079-.049c-.047.045-.118.196-.161.289-.118.254-.253.542-.545.627-.176.051-.368.012-.57-.116-.693-.438-.729-1.738-.758-2.781-.011-.381-.02-.741-.066-.89-.069-.226-.232-.309-.515-.437-.208-.094-.445-.201-.629-.413-.246-.282-.214-.713-.181-1.169.028-.388.057-.789-.088-1.051-.161-.291-.638-.418-.957-.338-.295.074-.295.271-.295.335 0 .253.075.553.141.817.11.44.205.821-.014 1.057-.12.13-.303.177-.541.141-.918-.139-.845-.91-.7-2.447.02-.215.043-.451.065-.707.127-1.461-.487-1.913-1.266-2.485a7.624 7.624 0 0 1-.686-.546c-.469-.433-.789-.362-1.192-.271-.301.067-.643.143-1.014-.041-.439-.218-1.274-.316-1.768-.109-.176.074-.287.179-.328.311-.044.141-.047.251-.009.288.068.065.357.1.879-.072.401-.131.841-.052 1.207.219.426.315.668.832.647 1.384s-.32.843-.559 1.077c-.251.245-.369.377-.305.688.218 1.079-.504 1.398-1.702 1.925l-.006.003c-1.16.511-2.282 1.591-2.668 2.569-.285.721-.472.851-.904 1.098-.218.125-.518.297-.966.654-.671.535-.829.827-1.012 1.166-.149.276-.319.59-.756 1.048-.423.442-.612 1.19-.764 1.791-.089.352-.166.656-.278.882-.219.444-.533.442-.7.4a.675.675 0 0 1-.464-.343c-.218-.422.048-1.063.355-1.806.057-.139.116-.28.172-.423.281-.712.203-1.316.042-1.461-.011-.01-.024-.018-.038-.024s-.029-.008-.044-.007z" style="fill:var(--color3, #407bff)"/>
      <path fill="#407bff" d="M6.676 12.268a.91.91 0 0 1-.208-.025.803.803 0 0 1-.564-.49c-.202-.478-.077-1.177.326-1.824.328-.526.904-1.004 1.413-1.426.374-.311.728-.603.818-.792.078-.163.106-.347.133-.525.05-.324.106-.692.501-.863.27-.117.599-.065.878.139.141.102.256.235.337.388.086-.177.159-.414.136-.691a3.591 3.591 0 0 0-.087-.469c-.09-.394-.175-.767.069-.959a.576.576 0 0 1 .601-.08c.392.166.737.75.786 1.33.065.771-.613 2.471-2.478 2.907-1.657.387-1.818 1.386-1.766 1.947.047.512-.109 1.002-.397 1.248a.748.748 0 0 1-.497.184zM9.398 6.64a.381.381 0 0 0-.149.03c-.192.083-.227.253-.276.573-.03.195-.064.416-.166.629-.126.264-.476.554-.918.921-.487.404-1.038.861-1.333 1.334-.329.529-.449 1.124-.298 1.481a.422.422 0 0 0 .299.267.39.39 0 0 0 .365-.077c.195-.166.302-.539.266-.928-.051-.55.049-1.879 2.059-2.349 1.64-.383 2.24-1.846 2.184-2.508-.04-.476-.325-.916-.555-1.014a.185.185 0 0 0-.209.027c-.053.062.024.4.066.581.04.174.081.353.095.521.066.785-.452 1.305-.474 1.326-.028.028-.064.046-.104.053a.192.192 0 0 1-.201-.095.178.178 0 0 1-.022-.113c.021-.179-.092-.393-.283-.532a.597.597 0 0 0-.346-.126zM23.269 12.491a.78.78 0 0 1-.128-.01c-.619-.099-.56-.894-.521-1.42.008-.112.016-.218.016-.297 0-.101-.133-.25-.261-.393-.26-.29-.616-.688-.416-1.258.079-.224.302-.358.612-.366.49-.012 1.149.288 1.36.798.136.327.185.617.229.872.045.263.084.49.206.691.137.225.105.514-.087.794-.212.309-.613.589-1.012.589zm-.664-3.367h-.022c-.067.002-.226.016-.26.112-.118.336.058.568.341.884.184.205.357.399.357.643 0 .093-.008.205-.017.324-.029.389-.073.976.2 1.02.235.037.576-.15.76-.418.05-.072.157-.254.076-.387-.16-.263-.206-.535-.256-.823a3.415 3.415 0 0 0-.206-.792c-.139-.336-.618-.563-.972-.563zM19.253 6.363l-.033-.001c-.631-.025-.701-.621-.744-.976-.014-.116-.036-.311-.075-.348a1.132 1.132 0 0 1-.426-.847.923.923 0 0 1 .302-.713c.158-.138.37-.186.615-.136.497.1 1.028.575 1.21.957.186.389.15 1.187-.177 1.673-.174.257-.406.392-.674.392zm-.54-2.663a.262.262 0 0 0-.179.06.546.546 0 0 0-.174.425.748.748 0 0 0 .289.564c.153.126.18.353.209.594.051.429.105.632.378.643.145.006.266-.067.371-.224.243-.361.285-1.018.149-1.302-.14-.292-.57-.674-.939-.748a.603.603 0 0 0-.104-.012zM12.487 1.959c-.34 0-.556-.147-.721-.26-.156-.107-.205-.13-.28-.104-.288.099-.963.332-1.246-.164a.636.636 0 0 1 .003-.641c.094-.159.347-.426.98-.426.243 0 .502-.093.754-.182.496-.177 1.114-.397 1.545.27.174.27.203.585.079.867-.139.315-.455.54-.869.617a1.277 1.277 0 0 1-.247.024zm-.949-.752c.182 0 .326.099.448.182.178.122.346.237.677.175.291-.054.499-.195.588-.396A.535.535 0 0 0 13.2.654c-.253-.393-.549-.31-1.09-.117-.283.101-.575.205-.885.205-.322 0-.559.087-.649.239a.258.258 0 0 0 0 .264c.087.152.329.15.785-.007a.536.536 0 0 1 .177-.031zM8.724 5.032c-.452 0-.82-.383-.82-.855s.368-.855.82-.855c.452 0 .819.383.819.855s-.368.855-.819.855zm0-1.332c-.24 0-.436.214-.436.477s.195.477.436.477c.24 0 .436-.214.436-.477S8.965 3.7 8.724 3.7zM5.632 8.425a.534.534 0 0 1-.138-.019.407.407 0 0 1-.301-.326c-.071-.37.279-.947.541-1.141.158-.117.279-.098.354-.061.307.152.314.62.163 1.005-.136.345-.365.542-.619.542zm.311-1.169c-.141.119-.387.506-.375.73.003.048.012.05.03.055.111.031.231-.132.295-.296.086-.218.079-.408.05-.489zM3.796 13.126a.814.814 0 0 1-.658-.32c-.324-.452-.243-1.009.196-1.355.284-.223.479-.822.531-1.034a.188.188 0 0 1 .109-.129.194.194 0 0 1 .17.007c.386.209 1.03.864.708 1.842-.253.769-.693.944-.933.98a.848.848 0 0 1-.123.009zm.362-2.354c-.099.29-.291.742-.584.973-.343.27-.28.622-.122.842a.435.435 0 0 0 .41.155c.263-.039.484-.296.625-.722.209-.633-.102-1.045-.328-1.248zM25.652 20.624a.801.801 0 0 1-.374-.1c-.905-.478-.745-1.939-.546-2.997.132-.7-.118-1.093-.12-1.097a.189.189 0 0 1 .002-.212.193.193 0 0 1 .2-.078c1.27.278 1.369 1.283 1.435 1.948.024.243.047.472.116.572.283.405.179 1.306-.199 1.721a.685.685 0 0 1-.513.241zm-.556-3.993c.058.232.091.558.014.966-.274 1.455-.156 2.328.35 2.594.17.09.3.072.419-.06.274-.301.335-1.015.169-1.254-.126-.18-.152-.444-.182-.749-.055-.564-.117-1.192-.77-1.496zM25.832 23.607c-.46 0-.834-.428-.834-.954s.374-.954.834-.954.835.428.835.954-.375.954-.835.954zm0-1.53c-.248 0-.45.258-.45.576s.202.576.45.576c.249 0 .451-.258.451-.576s-.202-.576-.451-.576zM2.013 27.03a.292.292 0 0 1-.051-.004c-.303-.044-.519-.471-.769-.965-.117-.233-.314-.622-.409-.669-.443-.197-.772-.639-.785-1.051-.009-.333.182-.616.536-.797.264-.135.537-.139.768-.011.333.184.547.62.588 1.196.023.328.17.641.312.944.203.434.414.882.085 1.229a.372.372 0 0 1-.276.129zM.944 23.818a.513.513 0 0 0-.23.062c-.223.114-.334.266-.329.452.007.265.253.58.559.717.206.092.36.381.595.845.123.243.346.686.468.754l.003-.003c.146-.153.036-.409-.153-.812-.149-.318-.319-.679-.347-1.076-.031-.44-.178-.773-.393-.892a.353.353 0 0 0-.174-.045zM15.181 21.667c.153.752-.336 1.542-1.045 1.84-.992.445-2.237-.079-2.537-1.121a1.504 1.504 0 0 1-.036-.719.113.113 0 0 1 .22-.002c.163.765.808 1.337 1.579 1.329.765-.006 1.392-.57 1.557-1.326.027-.14.235-.138.262 0z" style="fill:var(--color3, #407bff)"/>
      <path fill="#fff" d="M6.593 22.817c.692-.13 1.115-.942.946-1.814s-.867-1.472-1.559-1.342c-.692.13-1.115.942-.946 1.814s.867 1.472 1.559 1.342zM6.63 18.799c.715.219 1.433-2.086 2.7-2.608s2.102-2.163 2.491-3.225c.389-1.062 1.984-1.755 1.647-2.497s-1.796-.145-2.656.985-.476 2.31-1.773 2.809c-1.297.499-3.889 4.082-2.409 4.536z" opacity=".5" style="fill:var(--color4, #fff)"/>
      <path fill="#407bff" d="M23.504 24.485c-.49.478.162.974-.995 2.232-.482.523.356 2.091-1.966 2.072 0 0-1.348 1.169-2.696 1.329s-1.91-.053-3.202.638c-1.292.691-4.157-.478-5.337-.983s-1.629-.558-2.639-.558c-1.011 0-.618-1.488-1.348-2.126s-1.573-.903-1.629-1.487c-.056-.584-.618-.85-.562-1.754s-.899-1.169-1.011-2.285c-.112-1.116.505-1.328.28-1.966s-.28-1.169.056-1.806a1.65 1.65 0 0 1 .139-.222c.014.362.035.723.16.947.13.232.301.446.381.697.204.645-.252 1.301-.318 1.971-.123 1.24 1.04 2.2 1.836 3.192.708.883 1.216 1.969 2.216 2.547 1.113.644 2.556.478 3.775.04s2.331-1.123 3.573-1.5c1.437-.438 2.978-.445 4.485-.37 1.086.054 2.325.096 3.08-.643.434-.425.608-1.027.727-1.607.228-1.114.314-2.252.255-3.388l.394.737c.074.642.192 1.234.346 1.638.465 1.222.489 2.178 0 2.657z" opacity=".2" style="fill:var(--color3, #407bff)"/>
      <path fill="#407bff" d="M16.942 16.62c.821-.082 1.578.802 1.692 1.976s-.459 2.192-1.279 2.274c-.82.082-1.578-.802-1.692-1.976s.459-2.191 1.279-2.274z" style="fill:var(--color3, #407bff)"/>
      <path fill="#fff" d="M17 17.112c.261.108.374.507.252.892s-.434.61-.695.503c-.261-.108-.374-.507-.251-.892s.434-.61.695-.503z" style="fill:var(--color4, #fff)"/>
      <path fill="#8baeff" d="M17.879 19.634c.124.09.139.311.034.492s-.291.255-.415.165c-.123-.09-.139-.311-.034-.492s.291-.255.415-.165z" style="fill:var(--color5, #8baeff)"/>
      <path fill="#407bff" d="M9.905 16.62c-.821-.082-1.578.802-1.692 1.976s.459 2.192 1.279 2.274c.821.082 1.578-.802 1.692-1.976s-.459-2.191-1.279-2.274z" style="fill:var(--color3, #407bff)"/>
      <path fill="#fff" d="M9.847 17.112c-.261.108-.374.507-.251.892s.434.61.695.503.374-.507.252-.892c-.123-.385-.434-.61-.695-.503z" style="fill:var(--color4, #fff)"/>
      <path fill="#8baeff" d="M8.968 19.634c-.124.09-.139.311-.034.492s.291.255.415.165.139-.311.034-.492c-.105-.181-.291-.255-.415-.165z" style="fill:var(--color5, #8baeff)"/>
      <path fill="#407bff" d="M32.384 8.313V14h-1.168V8.313h1.168zm1.75 0v.918h-4.641v-.918h4.641zm.668 0h2.121c.435 0 .809.065 1.121.195.315.13.557.323.727.578s.254.569.254.941c0 .305-.052.566-.156.785a1.473 1.473 0 0 1-.434.543 2.256 2.256 0 0 1-.652.344l-.371.195h-1.844l-.008-.914h1.371c.206 0 .376-.036.512-.109s.237-.174.305-.305a.941.941 0 0 0 .105-.453c0-.182-.034-.34-.102-.473s-.171-.234-.309-.305a1.143 1.143 0 0 0-.52-.105h-.949V14h-1.172V8.313zM37.982 14l-1.297-2.535 1.238-.008 1.312 2.488V14h-1.254zm4.258-4.715L40.693 14h-1.246l2.113-5.687h.793l-.113.973zM43.525 14l-1.551-4.715-.125-.973h.801l2.125 5.687h-1.25zm-.071-2.117v.918H40.45v-.918h3.004zm5.075.23h1.168a2.12 2.12 0 0 1-.316 1.02 1.882 1.882 0 0 1-.777.695c-.331.167-.729.25-1.195.25-.365 0-.691-.063-.98-.188a2.093 2.093 0 0 1-.742-.547c-.203-.237-.358-.523-.465-.859s-.16-.712-.16-1.129v-.395c0-.417.055-.793.164-1.129.112-.339.271-.626.477-.863.208-.237.457-.419.746-.547s.612-.191.969-.191c.474 0 .874.086 1.199.258.328.172.582.409.762.711.182.302.292.646.328 1.031h-1.172a1.51 1.51 0 0 0-.137-.582.774.774 0 0 0-.356-.363c-.156-.083-.365-.125-.625-.125-.195 0-.366.036-.512.109s-.268.184-.367.332a1.644 1.644 0 0 0-.223.563c-.047.224-.07.487-.07.789v.402c0 .294.022.553.066.777.044.221.112.409.203.563a.953.953 0 0 0 .359.344c.148.076.327.113.535.113.245 0 .447-.039.605-.117s.28-.194.363-.348c.086-.154.137-.345.152-.574zm3.109-3.8V14h-1.172V8.313h1.172zm3.406 0-2.254 2.809-1.301 1.398-.211-1.109.879-1.203 1.449-1.894h1.437zM53.712 14l-1.676-2.629.867-.727 2.195 3.355h-1.387zm5.656-.914V14h-3.027v-.914h3.027zm-2.644-4.773V14h-1.172V8.313h1.172zm2.25 2.316v.891h-2.633v-.891h2.633zm.391-2.316v.918h-3.023v-.918h3.023zm.687 0h2.121c.435 0 .809.065 1.121.195.315.13.557.323.727.578s.254.569.254.941c0 .305-.052.566-.156.785a1.473 1.473 0 0 1-.434.543 2.256 2.256 0 0 1-.652.344l-.371.195h-1.844l-.008-.914h1.371c.206 0 .376-.036.512-.109s.237-.174.305-.305a.941.941 0 0 0 .105-.453c0-.182-.034-.34-.102-.473s-.171-.234-.309-.305a1.143 1.143 0 0 0-.52-.105h-.949V14h-1.172V8.313zM63.232 14l-1.297-2.535 1.238-.008 1.312 2.488V14h-1.254zm-28.719 6.357v.27c0 .432-.059.82-.176 1.164s-.283.637-.496.879c-.214.24-.469.423-.766.551a2.43 2.43 0 0 1-.98.191c-.357 0-.684-.064-.98-.191a2.21 2.21 0 0 1-.766-.551 2.576 2.576 0 0 1-.504-.879 3.603 3.603 0 0 1-.176-1.164v-.27c0-.435.059-.823.176-1.164.117-.344.283-.637.496-.879.216-.242.471-.427.766-.555.297-.128.624-.191.98-.191.359 0 .686.064.98.191.297.128.552.312.766.555.216.242.383.535.5.879.12.341.18.729.18 1.164zm-1.184.269v-.277c0-.302-.027-.568-.082-.797s-.135-.422-.242-.578a1.057 1.057 0 0 0-.918-.473c-.198 0-.374.04-.527.121-.151.078-.28.195-.387.352-.104.156-.184.349-.238.578s-.082.495-.082.797v.277c0 .299.027.565.082.797.055.229.135.423.242.582.107.156.237.275.391.355s.329.121.527.121.374-.04.527-.121c.154-.081.283-.199.387-.355a1.82 1.82 0 0 0 .238-.582 3.47 3.47 0 0 0 .082-.797zm3.2-2.98v5.687h-1.172v-5.687h1.172zm2.265 2.43v.914h-2.586v-.914h2.586zm.274-2.43v.918h-2.859v-.918h2.859zm4.043 4.785 1.133-4.785h.633l.144.797-1.207 4.891h-.68l-.023-.902zm-.582-4.785.937 4.785-.078.902h-.758l-1.262-5.687h1.16zm3.488 4.765.926-4.766h1.16l-1.258 5.687h-.758l-.07-.922zm-.785-4.765 1.141 4.805-.031.883h-.68l-1.215-4.895.156-.793h.629zm5.648.972-1.547 4.715h-1.246l2.113-5.687h.793l-.113.973zm1.285 4.715-1.551-4.715-.125-.973h.801l2.125 5.687h-1.25zm-.07-2.117v.918h-3.004v-.918h3.004zm3.906-3.57v5.687h-1.168v-5.687h1.168zm1.75 0v.918H53.11v-.918h4.641zm4.485 4.773v.914h-3.027v-.914h3.027zm-2.645-4.773v5.687h-1.172v-5.687h1.172zm2.25 2.316v.891h-2.633v-.891h2.633zm.391-2.316v.918h-3.023v-.918h3.023zm.687 0h2.121c.435 0 .809.065 1.121.195.315.13.557.323.727.578s.254.569.254.941c0 .305-.052.566-.156.785a1.484 1.484 0 0 1-.434.543 2.256 2.256 0 0 1-.652.344l-.371.195h-1.844l-.008-.914h1.371c.206 0 .376-.036.512-.109s.237-.174.305-.305a.941.941 0 0 0 .105-.453c0-.182-.034-.34-.102-.473s-.171-.234-.309-.305a1.143 1.143 0 0 0-.52-.105h-.949v4.77h-1.172v-5.687zm3.18 5.687-1.297-2.535 1.238-.008 1.312 2.488v.055h-1.254z" style="fill:var(--color3, #407bff)"/>
    </symbol>
    <symbol id="icon-x-mark" viewBox="0 0 32 32">
      <path stroke-linejoin="round" stroke-linecap="round" stroke-miterlimit="4" stroke-width="2" d="M8 24l16-16M8 8l16 16"></path>
    </symbol>
  </defs>
</svg>
